<svg xmlns="http://www.w3.org/2000/svg" id="_图层_1" data-name="图层_1" viewBox="0 5.1 99 29.41">
  <defs>
    <style>
      .cls-1 {
        fill: #ff6400;
      }

      .cls-2 {
        fill: #2d2d2d;
      }
    </style>
  </defs>
  <g>
    <path class="cls-2" d="M55.76,25.81c1.1-1.21,1.65-2.99,1.65-5.36s-.55-4.11-1.64-5.24c-1.09-1.12-2.73-1.68-4.91-1.68h-3v14.09h3c2.16,0,3.79-.6,4.9-1.81M43.48,9.76h7.57c3.67,0,6.38.93,8.16,2.8,1.77,1.86,2.66,4.5,2.66,7.89s-.89,6.17-2.67,8.08c-1.78,1.91-4.5,2.86-8.14,2.86h-7.57V9.76Z"/>
    <path class="cls-2" d="M69.16,31.39h-4.23V14.95h4.23v16.44ZM65.29,8.9c.43-.43,1.02-.65,1.76-.65s1.32.22,1.75.65c.42.43.63,1,.63,1.7s-.21,1.29-.63,1.7c-.42.41-1,.62-1.75.62s-1.33-.21-1.76-.62c-.43-.41-.65-.98-.65-1.7s.22-1.27.65-1.7"/>
    <path class="cls-2" d="M85.33,25.81c1.1-1.21,1.65-2.99,1.65-5.36s-.55-4.11-1.64-5.24c-1.09-1.12-2.73-1.68-4.91-1.68h-3v14.09h3c2.16,0,3.79-.6,4.9-1.81M73.05,9.76h7.57c3.67,0,6.38.93,8.16,2.8,1.77,1.86,2.66,4.5,2.66,7.89s-.89,6.17-2.67,8.08c-1.78,1.91-4.5,2.86-8.14,2.86h-7.57V9.76Z"/>
    <path class="cls-2" d="M98.72,31.39h-4.23V14.95h4.23v16.44ZM94.86,8.9c.43-.43,1.02-.65,1.76-.65s1.32.22,1.75.65c.42.43.63,1,.63,1.7s-.21,1.29-.63,1.7c-.42.41-1,.62-1.75.62s-1.33-.21-1.76-.62c-.43-.41-.65-.98-.65-1.7s.22-1.27.65-1.7"/>
  </g>
  <path class="cls-1" d="M29.25,11.7v5.01c0,6.17-5.05,11.16-11.24,11.05-6.06-.1-10.87-5.17-10.87-11.24v-3.96c0-.48.39-.87.87-.87h21.24v-6.59H1.7c-.94,0-1.7.76-1.7,1.7v9.29c0,10.03,8.03,18.35,18.06,18.42,10.11.07,18.33-8.1,18.33-18.2v-4.63h-7.14Z"/>
</svg>